<svg width="800" height="800" viewBox="0 0 800 800" fill="none" xmlns="http://www.w3.org/2000/svg">
<g clip-path="url(#clip0_1_2)">
<path d="M155.733 173.333L144.627 106.667H104.76C98.8133 83.7334 78.12 66.6667 53.3333 66.6667C23.92 66.6667 0 90.5867 0 120C0 149.413 23.92 173.333 53.3333 173.333C78.12 173.333 98.8133 156.267 104.773 133.333H122.027L128.693 173.333H128.187L197.133 520.213C164.267 522.72 136.893 548.027 133.667 579.867C131.773 598.6 137.933 617.36 150.573 631.307C163.227 645.293 181.253 653.333 200 653.333H226.667C226.667 697.453 262.547 733.333 306.667 733.333C350.787 733.333 386.667 697.453 386.667 653.333H533.333C533.333 697.453 569.213 733.333 613.333 733.333C657.453 733.333 693.333 697.453 693.333 653.333H746.667C754.04 653.333 760 647.373 760 640C760 632.627 754.04 626.667 746.667 626.667H688.667C677.653 595.64 648.093 573.333 613.333 573.333C578.573 573.333 549.013 595.64 538 626.667H382C370.987 595.64 341.427 573.333 306.667 573.333C271.907 573.333 242.347 595.64 231.333 626.667H200C188.773 626.667 177.973 621.84 170.347 613.427C162.653 604.907 159.04 593.947 160.2 582.547C162.227 562.427 180.813 546.68 202.507 546.68H213.053C213.24 546.68 213.387 546.68 213.573 546.68H733.493C770.173 546.667 800 516.84 800 480.173V173.333H155.733ZM53.3333 146.667C38.6267 146.667 26.6667 134.707 26.6667 120C26.6667 105.293 38.6267 93.3334 53.3333 93.3334C68.04 93.3334 80 105.293 80 120C80 134.707 68.04 146.667 53.3333 146.667ZM613.333 600C642.747 600 666.667 623.92 666.667 653.333C666.667 682.747 642.747 706.667 613.333 706.667C583.92 706.667 560 682.747 560 653.333C560 623.92 583.92 600 613.333 600ZM306.667 600C336.08 600 360 623.92 360 653.333C360 682.747 336.08 706.667 306.667 706.667C277.253 706.667 253.333 682.747 253.333 653.333C253.333 623.92 277.253 600 306.667 600ZM773.333 480.173C773.333 502.133 755.467 520 733.507 520H224.28L160.68 200H773.333V480.173Z" fill="black"/>
<rect x="191" y="176" width="609" height="308" fill="black"/>
<rect x="176" y="196" width="96" height="157" fill="black"/>
<rect x="217" y="472" width="558" height="53" fill="black"/>
<rect x="159" y="196" width="202" height="94" fill="black"/>
</g>
<defs>
<clipPath id="clip0_1_2">
<rect width="800" height="800" fill="white"/>
</clipPath>
</defs>
</svg>
