<svg width="400" height="400" viewBox="0 0 400 400" fill="none" xmlns="http://www.w3.org/2000/svg">
<g clip-path="url(#clip0_1_25)">
<path fill-rule="evenodd" clip-rule="evenodd" d="M302.94 0.0195253C239.908 -1.53957 201.113 89.0673 200.397 90.7519C199.685 89.0767 161.02 -1.22758 98.1331 0.0253236C86.3786 0.259424 73.7798 3.69611 60.4281 11.5175C-43.1959 72.2209 -24.0242 243.851 200.315 399.906V400C200.342 399.984 200.367 399.967 200.395 399.951C200.422 399.967 200.448 399.984 200.475 400V399.906C421.793 253.952 443.988 72.2209 340.363 11.5175C327.116 3.75741 314.612 0.308225 302.94 0.0195253H302.94ZM99.2308 24.2499C113.475 24.4791 127.476 30.9611 137.223 41.5351C170.719 71.4178 185.073 115.671 201.543 156.148C211.484 125.96 221.972 95.4422 239.942 68.8867C253.723 48.7432 271.728 28.0355 297.268 24.3925C327.436 23.8354 353.259 46.6056 365.674 72.7891C384.014 113.057 375.469 159.789 357.616 198.574C323.989 270.092 265.024 326.278 200.756 370.693C180.366 355.876 160.635 340.16 141.948 323.26C100.498 285.286 62.5063 241.762 39.9515 189.742C30.0879 165.73 22.89 139.705 23.7367 113.488C25.6599 76.0722 49.2505 38.8697 85.055 26.1855C89.7082 24.7919 94.4828 24.1735 99.2308 24.2499V24.2499Z" fill="black"/>
<rect x="65" y="95" width="276" height="169" fill="black"/>
<rect x="252" y="20" width="100" height="234" fill="black"/>
<rect x="338" y="62" width="47" height="127" fill="black"/>
<rect x="347" y="49" width="27" height="161" fill="black"/>
<rect x="41" y="62" width="54" height="175" fill="black"/>
<rect x="225" y="49" width="100" height="100" fill="black"/>
<rect x="74" y="49" width="102" height="100" fill="black"/>
<rect x="47" y="23" width="100" height="100" fill="black"/>
<rect x="20" y="52" width="109" height="142" fill="black"/>
<rect x="81" y="261" width="240" height="30" fill="black"/>
<path d="M151 281H251V361H151V281Z" fill="black"/>
<rect x="234" y="261" width="67" height="54" fill="black"/>
<rect x="229" y="291" width="48" height="43" fill="black"/>
<rect x="181" y="339" width="41" height="41" fill="black"/>
<rect x="119" y="288" width="32" height="43" fill="black"/>
<rect x="103" y="267" width="32" height="43" fill="black"/>
</g>
<defs>
<clipPath id="clip0_1_25">
<rect width="400" height="400" fill="white"/>
</clipPath>
</defs>
</svg>
