<!-- icon666.com - MILLIONS vector ICONS FREE --><svg clip-rule="evenodd" fill-rule="evenodd" stroke-linejoin="round" stroke-miterlimit="2" viewBox="0 0 24 24" xmlns="http://www.w3.org/2000/svg"><g id="Icon"><g><path d="m14.272 15.624 7.198 7.198c.292.292.768.292 1.06 0 .293-.293.293-.768 0-1.061l-7.197-7.198c-.293-.293-.768-.293-1.061 0s-.293.768 0 1.061z"></path><path d="m9.5 1.541c-4.553 0-8.25 3.697-8.25 8.25 0 4.554 3.697 8.25 8.25 8.25s8.25-3.696 8.25-8.25c0-4.553-3.697-8.25-8.25-8.25zm.75 7.5v-2.75c0-.414-.336-.75-.75-.75s-.75.336-.75.75v2.75h-2.75c-.414 0-.75.336-.75.75s.336.75.75.75h2.75v2.75c0 .414.336.75.75.75s.75-.336.75-.75v-2.75h2.75c.414 0 .75-.336.75-.75s-.336-.75-.75-.75z"></path></g></g></svg>